<mxfile host="app.diagrams.net" agent="Mozilla/5.0 (Windows NT 10.0; Win64; x64) AppleWebKit/537.36 (KHTML, like Gecko) Chrome/131.0.0.0 Safari/537.36" version="25.0.3">
  <diagram name="第 1 页" id="qDqMGGCv3PbkaUbB1aa6">
    <mxGraphModel dx="1434" dy="738" grid="1" gridSize="10" guides="1" tooltips="1" connect="1" arrows="1" fold="1" page="1" pageScale="1" pageWidth="827" pageHeight="1169" math="0" shadow="0">
      <root>
        <mxCell id="0" />
        <mxCell id="1" parent="0" />
        <mxCell id="nXA_iJxp7kX-uLhlYY8G-10" value="" style="edgeStyle=orthogonalEdgeStyle;rounded=0;orthogonalLoop=1;jettySize=auto;html=1;fontSize=14;" edge="1" parent="1" source="nXA_iJxp7kX-uLhlYY8G-2" target="nXA_iJxp7kX-uLhlYY8G-3">
          <mxGeometry relative="1" as="geometry" />
        </mxCell>
        <mxCell id="nXA_iJxp7kX-uLhlYY8G-2" value="Input" style="rounded=1;whiteSpace=wrap;html=1;fontSize=14;fillColor=#fff2cc;strokeColor=#d6b656;" vertex="1" parent="1">
          <mxGeometry x="140" y="360" width="75" height="30" as="geometry" />
        </mxCell>
        <mxCell id="nXA_iJxp7kX-uLhlYY8G-3" value="Retriever" style="rounded=1;whiteSpace=wrap;html=1;fontSize=14;fillColor=#ffe6cc;strokeColor=#d79b00;" vertex="1" parent="1">
          <mxGeometry x="140" y="485" width="75" height="40" as="geometry" />
        </mxCell>
        <mxCell id="nXA_iJxp7kX-uLhlYY8G-4" value="" style="rounded=1;whiteSpace=wrap;html=1;dashed=1;fillColor=#f5f5f5;strokeColor=#666666;fontSize=14;fontColor=#333333;" vertex="1" parent="1">
          <mxGeometry x="130" y="600" width="75" height="52" as="geometry" />
        </mxCell>
        <mxCell id="nXA_iJxp7kX-uLhlYY8G-12" style="edgeStyle=orthogonalEdgeStyle;rounded=0;orthogonalLoop=1;jettySize=auto;html=1;entryX=0.5;entryY=0;entryDx=0;entryDy=0;fontSize=14;" edge="1" parent="1" source="nXA_iJxp7kX-uLhlYY8G-5" target="nXA_iJxp7kX-uLhlYY8G-7">
          <mxGeometry relative="1" as="geometry" />
        </mxCell>
        <mxCell id="nXA_iJxp7kX-uLhlYY8G-5" value="" style="rounded=1;whiteSpace=wrap;html=1;dashed=1;fillColor=#f5f5f5;strokeColor=#666666;fontSize=14;fontColor=#333333;" vertex="1" parent="1">
          <mxGeometry x="140" y="610" width="75" height="52" as="geometry" />
        </mxCell>
        <mxCell id="nXA_iJxp7kX-uLhlYY8G-6" value="Documents" style="rounded=1;whiteSpace=wrap;html=1;dashed=1;fillColor=#f5f5f5;strokeColor=#666666;fontSize=14;fontColor=#333333;" vertex="1" parent="1">
          <mxGeometry x="150" y="620" width="75" height="52" as="geometry" />
        </mxCell>
        <mxCell id="nXA_iJxp7kX-uLhlYY8G-16" value="" style="edgeStyle=orthogonalEdgeStyle;rounded=0;orthogonalLoop=1;jettySize=auto;html=1;fontSize=14;" edge="1" parent="1" source="nXA_iJxp7kX-uLhlYY8G-7" target="nXA_iJxp7kX-uLhlYY8G-9">
          <mxGeometry relative="1" as="geometry" />
        </mxCell>
        <mxCell id="nXA_iJxp7kX-uLhlYY8G-7" value="LLMs" style="rounded=1;whiteSpace=wrap;html=1;fontSize=14;fillColor=#ffe6cc;strokeColor=#d79b00;" vertex="1" parent="1">
          <mxGeometry x="140" y="700" width="75" height="40" as="geometry" />
        </mxCell>
        <mxCell id="nXA_iJxp7kX-uLhlYY8G-9" value="Output" style="rounded=1;whiteSpace=wrap;html=1;fontSize=14;fillColor=#fff2cc;strokeColor=#d6b656;" vertex="1" parent="1">
          <mxGeometry x="140" y="770" width="75" height="30" as="geometry" />
        </mxCell>
        <mxCell id="nXA_iJxp7kX-uLhlYY8G-11" style="edgeStyle=orthogonalEdgeStyle;rounded=0;orthogonalLoop=1;jettySize=auto;html=1;entryX=0.5;entryY=0;entryDx=0;entryDy=0;fontSize=14;" edge="1" parent="1" source="nXA_iJxp7kX-uLhlYY8G-3" target="nXA_iJxp7kX-uLhlYY8G-5">
          <mxGeometry relative="1" as="geometry" />
        </mxCell>
        <mxCell id="nXA_iJxp7kX-uLhlYY8G-18" style="edgeStyle=orthogonalEdgeStyle;rounded=0;orthogonalLoop=1;jettySize=auto;html=1;entryX=0.5;entryY=0;entryDx=0;entryDy=0;fontSize=14;" edge="1" parent="1" source="nXA_iJxp7kX-uLhlYY8G-13" target="nXA_iJxp7kX-uLhlYY8G-14">
          <mxGeometry relative="1" as="geometry" />
        </mxCell>
        <mxCell id="nXA_iJxp7kX-uLhlYY8G-13" value="Input" style="rounded=1;whiteSpace=wrap;html=1;fontSize=14;fillColor=#fff2cc;strokeColor=#d6b656;" vertex="1" parent="1">
          <mxGeometry x="264" y="360" width="75" height="30" as="geometry" />
        </mxCell>
        <mxCell id="nXA_iJxp7kX-uLhlYY8G-19" style="edgeStyle=orthogonalEdgeStyle;rounded=0;orthogonalLoop=1;jettySize=auto;html=1;fontSize=14;" edge="1" parent="1" source="nXA_iJxp7kX-uLhlYY8G-14" target="nXA_iJxp7kX-uLhlYY8G-15">
          <mxGeometry relative="1" as="geometry" />
        </mxCell>
        <mxCell id="nXA_iJxp7kX-uLhlYY8G-14" value="Rewriter" style="rounded=1;whiteSpace=wrap;html=1;fontSize=14;fillColor=#ffe6cc;strokeColor=#d79b00;" vertex="1" parent="1">
          <mxGeometry x="264" y="420" width="75" height="40" as="geometry" />
        </mxCell>
        <mxCell id="nXA_iJxp7kX-uLhlYY8G-21" value="" style="edgeStyle=orthogonalEdgeStyle;rounded=0;orthogonalLoop=1;jettySize=auto;html=1;fontSize=14;" edge="1" parent="1" source="nXA_iJxp7kX-uLhlYY8G-15" target="nXA_iJxp7kX-uLhlYY8G-20">
          <mxGeometry relative="1" as="geometry" />
        </mxCell>
        <mxCell id="nXA_iJxp7kX-uLhlYY8G-22" value="" style="edgeStyle=orthogonalEdgeStyle;rounded=0;orthogonalLoop=1;jettySize=auto;html=1;fontSize=14;" edge="1" parent="1" source="nXA_iJxp7kX-uLhlYY8G-15" target="nXA_iJxp7kX-uLhlYY8G-20">
          <mxGeometry relative="1" as="geometry" />
        </mxCell>
        <mxCell id="nXA_iJxp7kX-uLhlYY8G-15" value="Query" style="rounded=1;whiteSpace=wrap;html=1;fontSize=14;dashed=1;fillColor=#fff2cc;strokeColor=#d6b656;" vertex="1" parent="1">
          <mxGeometry x="264" y="480" width="75" height="30" as="geometry" />
        </mxCell>
        <mxCell id="nXA_iJxp7kX-uLhlYY8G-20" value="Retriever" style="rounded=1;whiteSpace=wrap;html=1;fontSize=14;fillColor=#ffe6cc;strokeColor=#d79b00;" vertex="1" parent="1">
          <mxGeometry x="264" y="540" width="75" height="40" as="geometry" />
        </mxCell>
        <mxCell id="nXA_iJxp7kX-uLhlYY8G-29" value="" style="edgeStyle=orthogonalEdgeStyle;rounded=0;orthogonalLoop=1;jettySize=auto;html=1;fontSize=14;" edge="1" parent="1" source="nXA_iJxp7kX-uLhlYY8G-30" target="nXA_iJxp7kX-uLhlYY8G-31">
          <mxGeometry relative="1" as="geometry" />
        </mxCell>
        <mxCell id="nXA_iJxp7kX-uLhlYY8G-30" value="LLMs" style="rounded=1;whiteSpace=wrap;html=1;fontSize=14;fillColor=#ffe6cc;strokeColor=#d79b00;" vertex="1" parent="1">
          <mxGeometry x="264" y="700" width="75" height="40" as="geometry" />
        </mxCell>
        <mxCell id="nXA_iJxp7kX-uLhlYY8G-33" style="edgeStyle=elbowEdgeStyle;rounded=0;orthogonalLoop=1;jettySize=auto;html=1;fontSize=14;entryX=0;entryY=0.5;entryDx=0;entryDy=0;" edge="1" parent="1" source="nXA_iJxp7kX-uLhlYY8G-31" target="nXA_iJxp7kX-uLhlYY8G-14">
          <mxGeometry relative="1" as="geometry">
            <mxPoint x="260" y="440" as="targetPoint" />
            <Array as="points">
              <mxPoint x="240" y="620" />
            </Array>
          </mxGeometry>
        </mxCell>
        <mxCell id="nXA_iJxp7kX-uLhlYY8G-31" value="Output" style="rounded=1;whiteSpace=wrap;html=1;fontSize=14;fillColor=#fff2cc;strokeColor=#d6b656;" vertex="1" parent="1">
          <mxGeometry x="264" y="770" width="75" height="30" as="geometry" />
        </mxCell>
        <mxCell id="nXA_iJxp7kX-uLhlYY8G-32" style="edgeStyle=orthogonalEdgeStyle;rounded=0;orthogonalLoop=1;jettySize=auto;html=1;entryX=0.5;entryY=0;entryDx=0;entryDy=0;fontSize=14;" edge="1" parent="1" source="nXA_iJxp7kX-uLhlYY8G-26" target="nXA_iJxp7kX-uLhlYY8G-30">
          <mxGeometry relative="1" as="geometry" />
        </mxCell>
        <mxCell id="nXA_iJxp7kX-uLhlYY8G-28" style="edgeStyle=orthogonalEdgeStyle;rounded=0;orthogonalLoop=1;jettySize=auto;html=1;entryX=0.5;entryY=0;entryDx=0;entryDy=0;fontSize=14;" edge="1" parent="1" source="nXA_iJxp7kX-uLhlYY8G-20" target="nXA_iJxp7kX-uLhlYY8G-26">
          <mxGeometry relative="1" as="geometry" />
        </mxCell>
        <mxCell id="nXA_iJxp7kX-uLhlYY8G-35" value="Query" style="rounded=1;whiteSpace=wrap;html=1;fontSize=14;dashed=1;fillColor=#fff2cc;strokeColor=#d6b656;" vertex="1" parent="1">
          <mxGeometry x="274" y="490" width="75" height="30" as="geometry" />
        </mxCell>
        <mxCell id="nXA_iJxp7kX-uLhlYY8G-37" value="" style="edgeStyle=orthogonalEdgeStyle;rounded=0;orthogonalLoop=1;jettySize=auto;html=1;fontSize=14;" edge="1" parent="1" source="nXA_iJxp7kX-uLhlYY8G-38" target="nXA_iJxp7kX-uLhlYY8G-39">
          <mxGeometry relative="1" as="geometry" />
        </mxCell>
        <mxCell id="nXA_iJxp7kX-uLhlYY8G-38" value="Input" style="rounded=1;whiteSpace=wrap;html=1;fontSize=14;fillColor=#fff2cc;strokeColor=#d6b656;" vertex="1" parent="1">
          <mxGeometry x="382" y="360" width="75" height="30" as="geometry" />
        </mxCell>
        <mxCell id="nXA_iJxp7kX-uLhlYY8G-39" value="Retriever" style="rounded=1;whiteSpace=wrap;html=1;fontSize=14;fillColor=#ffe6cc;strokeColor=#d79b00;" vertex="1" parent="1">
          <mxGeometry x="382" y="490" width="75" height="40" as="geometry" />
        </mxCell>
        <mxCell id="nXA_iJxp7kX-uLhlYY8G-40" value="" style="rounded=1;whiteSpace=wrap;html=1;dashed=1;fillColor=#f5f5f5;strokeColor=#666666;fontSize=14;fontColor=#333333;" vertex="1" parent="1">
          <mxGeometry x="372" y="600" width="75" height="52" as="geometry" />
        </mxCell>
        <mxCell id="nXA_iJxp7kX-uLhlYY8G-41" style="edgeStyle=orthogonalEdgeStyle;rounded=0;orthogonalLoop=1;jettySize=auto;html=1;entryX=0.5;entryY=0;entryDx=0;entryDy=0;fontSize=14;" edge="1" parent="1" source="nXA_iJxp7kX-uLhlYY8G-42" target="nXA_iJxp7kX-uLhlYY8G-45">
          <mxGeometry relative="1" as="geometry" />
        </mxCell>
        <mxCell id="nXA_iJxp7kX-uLhlYY8G-42" value="" style="rounded=1;whiteSpace=wrap;html=1;dashed=1;fillColor=#f5f5f5;strokeColor=#666666;fontSize=14;fontColor=#333333;" vertex="1" parent="1">
          <mxGeometry x="382" y="610" width="75" height="52" as="geometry" />
        </mxCell>
        <mxCell id="nXA_iJxp7kX-uLhlYY8G-43" value="Documents" style="rounded=1;whiteSpace=wrap;html=1;dashed=1;fillColor=#f5f5f5;strokeColor=#666666;fontSize=14;fontColor=#333333;" vertex="1" parent="1">
          <mxGeometry x="392" y="620" width="75" height="52" as="geometry" />
        </mxCell>
        <mxCell id="nXA_iJxp7kX-uLhlYY8G-44" value="" style="edgeStyle=orthogonalEdgeStyle;rounded=0;orthogonalLoop=1;jettySize=auto;html=1;fontSize=14;" edge="1" parent="1" source="nXA_iJxp7kX-uLhlYY8G-45" target="nXA_iJxp7kX-uLhlYY8G-46">
          <mxGeometry relative="1" as="geometry" />
        </mxCell>
        <mxCell id="nXA_iJxp7kX-uLhlYY8G-58" style="edgeStyle=orthogonalEdgeStyle;rounded=0;orthogonalLoop=1;jettySize=auto;html=1;entryX=0;entryY=0.5;entryDx=0;entryDy=0;" edge="1" parent="1" source="nXA_iJxp7kX-uLhlYY8G-45" target="nXA_iJxp7kX-uLhlYY8G-57">
          <mxGeometry relative="1" as="geometry" />
        </mxCell>
        <mxCell id="nXA_iJxp7kX-uLhlYY8G-45" value="LLMs" style="rounded=1;whiteSpace=wrap;html=1;fontSize=14;fillColor=#ffe6cc;strokeColor=#d79b00;" vertex="1" parent="1">
          <mxGeometry x="382" y="700" width="75" height="40" as="geometry" />
        </mxCell>
        <mxCell id="nXA_iJxp7kX-uLhlYY8G-46" value="Output" style="rounded=1;whiteSpace=wrap;html=1;fontSize=14;fillColor=#fff2cc;strokeColor=#d6b656;" vertex="1" parent="1">
          <mxGeometry x="382" y="770" width="75" height="30" as="geometry" />
        </mxCell>
        <mxCell id="nXA_iJxp7kX-uLhlYY8G-47" style="edgeStyle=orthogonalEdgeStyle;rounded=0;orthogonalLoop=1;jettySize=auto;html=1;entryX=0.5;entryY=0;entryDx=0;entryDy=0;fontSize=14;" edge="1" parent="1" source="nXA_iJxp7kX-uLhlYY8G-39" target="nXA_iJxp7kX-uLhlYY8G-42">
          <mxGeometry relative="1" as="geometry" />
        </mxCell>
        <mxCell id="nXA_iJxp7kX-uLhlYY8G-25" value="" style="rounded=1;whiteSpace=wrap;html=1;dashed=1;fillColor=#f5f5f5;strokeColor=#666666;fontSize=14;fontColor=#333333;" vertex="1" parent="1">
          <mxGeometry x="254" y="600" width="75" height="52" as="geometry" />
        </mxCell>
        <mxCell id="nXA_iJxp7kX-uLhlYY8G-26" value="" style="rounded=1;whiteSpace=wrap;html=1;dashed=1;fillColor=#f5f5f5;strokeColor=#666666;fontSize=14;fontColor=#333333;" vertex="1" parent="1">
          <mxGeometry x="264" y="610" width="75" height="52" as="geometry" />
        </mxCell>
        <mxCell id="nXA_iJxp7kX-uLhlYY8G-27" value="Documents" style="rounded=1;whiteSpace=wrap;html=1;dashed=1;fillColor=#f5f5f5;strokeColor=#666666;fontSize=14;fontColor=#333333;" vertex="1" parent="1">
          <mxGeometry x="274" y="620" width="75" height="52" as="geometry" />
        </mxCell>
        <mxCell id="nXA_iJxp7kX-uLhlYY8G-59" style="edgeStyle=elbowEdgeStyle;rounded=0;orthogonalLoop=1;jettySize=auto;html=1;entryX=1;entryY=0.5;entryDx=0;entryDy=0;elbow=vertical;exitX=0.5;exitY=0;exitDx=0;exitDy=0;" edge="1" parent="1" source="nXA_iJxp7kX-uLhlYY8G-57" target="nXA_iJxp7kX-uLhlYY8G-39">
          <mxGeometry relative="1" as="geometry">
            <Array as="points">
              <mxPoint x="500" y="510" />
            </Array>
          </mxGeometry>
        </mxCell>
        <mxCell id="nXA_iJxp7kX-uLhlYY8G-57" value="Intermediate&lt;div&gt;Representation&lt;/div&gt;" style="rounded=1;whiteSpace=wrap;html=1;fontSize=14;fillColor=#fff2cc;strokeColor=#d6b656;" vertex="1" parent="1">
          <mxGeometry x="480" y="700" width="100" height="40" as="geometry" />
        </mxCell>
      </root>
    </mxGraphModel>
  </diagram>
</mxfile>
